<?xml version="1.0" encoding="UTF-8"?>
<svg xmlns="http://www.w3.org/2000/svg" viewBox="0 0 443 443">
  <defs>
    <style>
      .cls-1 {
        fill: #fff;
      }

      .cls-2 {
        fill: #013f5c;
      }

      .cls-3 {
        fill: #0073a8;
      }
    </style>
  </defs>
  <g id="Layer_2" data-name="Layer 2">
    <circle class="cls-1" cx="221.5" cy="221.5" r="221.5"/>
  </g>
  <g id="Layer_1" data-name="Layer 1">
    <g>
      <path class="cls-2" d="m97.09,95.98c-6.08,6.08-6.08,15.96,0,22.06l95.7,95.7,58.06-66.5-153.76-51.26Z"/>
      <path class="cls-2" d="m325.55,346.51c5.77,5.77,15.15,5.77,20.91,0l-50.8-154.23-66.38,57.96,96.26,96.26Z"/>
      <path class="cls-2" d="m126.19,290.01l-51.17-10.22v29.42l25.34,11.53c.78-1.71,1.78-3.33,3.15-4.74l22.66-25.96.03-.03Z"/>
      <path class="cls-2" d="m122.3,342.64l11.53,25.34h29.42l-10.22-51.17-25.96,22.66c-1.4,1.37-3.02,2.4-4.74,3.15l-.03.03Z"/>
      <path class="cls-3" d="m361.73,81.27c-12.19-12.19-39.27-4.83-51.45,7.35l-202.19,231.58c-4.05,4.05-4.05,10.66,0,14.71,4.05,4.05,10.63,4.05,14.71,0l231.58-202.16c12.19-12.19,19.54-39.27,7.35-51.45v-.03Zm-19.85,46.31l-4.39-4.39c4.86-4.86,4.86-12.78,0-17.64-4.86-4.86-12.78-4.86-17.64,0l-4.39-4.39c7.29-7.29,19.17-7.29,26.46,0s7.29,19.17,0,26.46l-.03-.03Z"/>
      <path class="cls-3" d="m328.63,239.33c6.08-6.08,6.08-15.96,0-22.06-5.14-5.14-12.96-5.89-18.95-2.34l10.75,32.6,8.23-8.23-.03.03Z"/>
      <path class="cls-3" d="m339.66,287.11c4.05-4.05,4.05-10.66,0-14.71-3.18-3.18-7.88-3.83-11.72-2.03l7.04,21.41,4.67-4.67Z"/>
      <path class="cls-3" d="m225.73,114.37c-6.08-6.08-15.96-6.08-22.06,0l-7.95,7.95,32.44,10.81c3.43-5.95,2.65-13.65-2.46-18.76h.03Z"/>
      <path class="cls-3" d="m170.6,103.34c-4.05-4.05-10.63-4.05-14.71,0l-4.27,4.27,21.22,7.07c1.56-3.77.81-8.26-2.24-11.34Z"/>
    </g>
  </g>
</svg>